<svg width="197" height="105" viewBox="0 0 197 105" fill="none" xmlns="http://www.w3.org/2000/svg">
<path d="M44.9728 33.6238C45.403 30.3869 48.2489 29.33 49.705 29.2309C50.069 29.2309 50.4 29.33 50.6647 29.5612C50.764 29.6603 50.8633 29.7924 50.9294 29.9245L53.4776 23.4838H41.465L23.8928 67.677H35.9054L47.4216 38.7103C46.0979 37.8185 44.6419 36.101 44.9728 33.5577V33.6238Z" fill="white"/>
<path d="M49.705 29.2309C50.069 29.2309 50.4 29.33 50.6647 29.5612C50.9295 29.7924 51.0618 30.1557 51.0618 30.5191L50.9956 32.1375C51.6906 32.2366 52.3524 32.5008 52.915 32.9632C53.3121 33.2605 53.643 33.6238 53.9078 34.0202C54.8013 33.0953 55.761 32.2035 56.7868 31.9063L53.4445 23.4838H41.4319L45.1383 32.7981C45.8994 30.1888 48.3813 29.297 49.705 29.1979V29.2309Z" fill="white"/>
<path d="M49.1755 39.1727L49.6719 37.8515C49.6719 37.8515 47.2893 37.1579 47.8518 34.7468C47.8518 34.7468 48.0504 33.3596 49.7381 32.9632L49.8043 30.486C49.8043 30.486 46.6274 30.7172 46.2303 33.7889C45.8332 36.8607 48.8777 38.1488 48.8777 38.1488C48.8777 38.1488 48.6792 39.0736 49.1755 39.1727Z" fill="#E65736"/>
<path d="M47.1238 55.6873C47.1238 55.6873 43.616 54.9276 42.4246 58.1645C42.4246 58.1645 41.8952 59.7499 42.1268 61.3684C42.2592 62.2932 41.7959 63.1189 41.3657 63.6804C40.9355 64.2419 40.5053 64.5722 39.9427 64.8364C39.3801 65.1007 39.5787 64.9685 39.4132 65.0016C39.4132 65.0016 40.6707 66.1246 43.7483 64.341C43.7483 64.341 45.6677 63.218 45.1051 59.7169C44.5426 56.2158 47.1238 55.7203 47.1238 55.7203V55.6873Z" fill="#E65736"/>
<path d="M50.5323 62.6895L50.069 62.1611C50.069 62.1611 46.7929 58.3627 47.4216 55.324C47.9511 52.7477 51.1611 51.1954 52.1539 50.766C52.4848 50.6339 52.7826 50.4687 53.0804 50.2375C54.1394 49.4778 56.0588 47.5291 55.43 43.962C55.3638 43.4995 55.1322 43.1032 54.7682 42.8059C54.4041 42.5087 53.7092 42.1453 52.7495 41.9472C52.3524 41.8811 51.9553 41.9472 51.5913 42.1784L46.9914 44.9528C46.7267 45.118 46.3957 45.151 46.131 45.0189C45.8663 44.8868 45.7339 44.7216 45.7008 44.3583C45.7008 43.5326 50.8632 38.8754 50.8632 38.8754C50.8632 38.8754 51.0949 38.8094 50.9625 38.347C50.8302 37.8846 50.5985 37.7524 50.2676 37.5873L49.7381 37.3561C49.7381 37.3561 49.0762 37.1579 48.646 36.3982C48.1497 35.4734 48.3482 34.3174 49.1755 33.7229C49.4403 33.5247 49.7712 33.3926 50.1683 33.3265C50.8632 33.2274 51.5582 33.4586 52.0877 33.888C52.551 34.2844 53.0804 34.8789 53.2459 35.8368C53.2459 35.8368 53.4114 36.2661 54.007 35.6386C54.6027 35.011 56.4228 32.765 57.6803 33.0293L64.9938 27.2822C64.9938 27.2822 64.365 26.3243 64.5636 25.3665C64.5636 25.3665 61.7176 22.1626 53.279 21.0066C53.279 21.0066 61.6514 20.2469 66.9793 26.0601C72.3072 31.8732 71.0166 39.7672 71.0166 39.7672C71.0166 39.7672 70.454 29.297 66.1851 27.2822L58.1767 35.5725L61.519 43.8298V43.8959L62.3133 45.8776C55.5293 49.1806 51.2604 55.6543 50.5323 62.6565H50.4992L50.5323 62.6895Z" fill="#E65736"/>
<path d="M71.5131 73.6222C66.7477 73.6222 62.8759 69.7578 62.8759 65.0016C62.8759 60.2454 66.7477 56.381 71.5131 56.381C76.2784 56.381 77.7345 58.2636 79.1905 61.0381H90.1442C88.4565 52.0872 80.5804 45.3492 71.149 45.3492C61.7177 45.3492 51.823 54.0028 51.823 64.6383C51.823 75.2737 60.4932 83.9274 71.149 83.9274C81.8049 83.9274 88.291 77.3215 90.078 68.5027H79.3891C78.0323 71.5083 75.0209 73.5892 71.5131 73.5892V73.6222Z" fill="white"/>
<path d="M102.455 40.8242H97.6893L96.7627 43.0371H94.3138L98.9137 32.765H101.263L105.863 43.0371H103.348L102.422 40.8242H102.455ZM101.693 39.0406L100.072 35.1101L98.4504 39.0406H101.727H101.693Z" fill="white"/>
<path d="M106.922 32.765H109.305V41.0884H114.467V43.0371H106.922V32.765Z" fill="white"/>
<path d="M122.641 33.2274C123.303 33.5247 123.832 33.9541 124.196 34.5156C124.56 35.0771 124.726 35.7376 124.726 36.4973C124.726 37.257 124.56 37.9176 124.196 38.4791C123.832 39.0406 123.303 39.4699 122.641 39.7672C121.979 40.0645 121.185 40.2296 120.258 40.2296H118.174V43.0701H115.791V32.798H120.258C121.185 32.798 121.946 32.9632 122.641 33.2604V33.2274ZM121.781 37.8185C122.145 37.5212 122.343 37.0588 122.343 36.4973C122.343 35.9358 122.145 35.4734 121.781 35.1761C121.417 34.8789 120.854 34.7137 120.159 34.7137H118.207V38.2809H120.159C120.887 38.2809 121.417 38.1157 121.781 37.8185Z" fill="white"/>
<path d="M135.878 32.765V43.0371H133.495V38.8094H128.829V43.0371H126.447V32.765H128.829V36.8276H133.495V32.765H135.878Z" fill="white"/>
<path d="M145.078 40.8242H140.312L139.386 43.0371H136.937L141.537 32.765H143.886L148.486 43.0371H145.971L145.045 40.8242H145.078ZM144.35 39.0406L142.728 35.1101L141.107 39.0406H144.383H144.35Z" fill="white"/>
<path d="M97.0274 56.9754C96.167 56.513 95.5052 55.8855 95.0419 55.0928C94.5455 54.3001 94.3138 53.3752 94.3138 52.3513C94.3138 51.3274 94.5455 50.4356 95.0419 49.6099C95.5383 48.8172 96.2001 48.1566 97.0274 47.7272C97.8878 47.2648 98.8144 47.0336 99.8734 47.0336C100.932 47.0336 101.561 47.1988 102.289 47.496C103.017 47.7933 103.613 48.2557 104.109 48.8502L102.587 50.2705C101.892 49.4778 101.032 49.0814 100.006 49.0814C98.9799 49.0814 98.8144 49.2136 98.2849 49.5108C97.7886 49.7751 97.3915 50.1714 97.1267 50.6668C96.862 51.1623 96.6965 51.7238 96.6965 52.3844C96.6965 53.045 96.8289 53.5734 97.1267 54.1019C97.3915 54.5973 97.7886 54.9937 98.2849 55.2579C98.7813 55.5222 99.3439 55.6873 100.006 55.6873C101.032 55.6873 101.892 55.2909 102.587 54.4652L104.109 55.8855C103.613 56.48 103.017 56.9424 102.289 57.2397C101.561 57.5369 100.767 57.7021 99.8734 57.7021C98.9799 57.7021 97.8878 57.4709 97.0274 57.0085V56.9754Z" fill="white"/>
<path d="M113.706 55.5882V57.5039H105.731V47.2318H113.508V49.1475H108.08V51.3935H112.846V53.2431H108.08V55.6212H113.673L113.706 55.5882Z" fill="white"/>
<path d="M125.024 47.2318V57.5039H123.071L117.942 51.2614V57.5039H115.592V47.2318H117.578L122.707 53.4743V47.2318H125.057H125.024Z" fill="white"/>
<path d="M129.624 49.1475H126.314V47.1988H135.282V49.1475H131.973V57.4709H129.59V49.1475H129.624Z" fill="white"/>
<path d="M142.828 55.2909H138.062L137.136 57.5039H134.687L139.287 47.2318H141.636L146.236 57.5039H143.721L142.794 55.2909H142.828ZM142.066 53.4743L140.445 49.5439L138.823 53.4743H142.099H142.066Z" fill="white"/>
<path d="M148.222 56.447C147.394 55.6212 146.997 54.4652 146.997 52.9789V47.2318H149.38V52.9128C149.38 54.7625 150.141 55.6873 151.663 55.6873C153.185 55.6873 152.987 55.4561 153.384 55.0267C153.781 54.5973 153.98 53.8707 153.98 52.9459V47.2648H156.329V53.0119C156.329 54.5313 155.932 55.6873 155.105 56.48C154.278 57.3057 153.152 57.7021 151.663 57.7021C150.174 57.7021 149.049 57.3057 148.222 56.48V56.447Z" fill="white"/>
<path d="M165.231 57.5039L163.246 54.6304H161.062V57.5039H158.679V47.2318H163.146C164.073 47.2318 164.834 47.397 165.529 47.6942C166.191 47.9915 166.72 48.4209 167.084 48.9824C167.448 49.5439 167.614 50.2044 167.614 50.9641C167.614 51.7238 167.415 52.3844 167.051 52.9459C166.687 53.5074 166.158 53.9368 165.496 54.201L167.812 57.5039H165.264H165.231ZM164.635 49.6099C164.271 49.3127 163.709 49.1475 163.014 49.1475H161.062V52.7147H163.014C163.742 52.7147 164.271 52.5495 164.635 52.2523C165 51.955 165.198 51.4926 165.198 50.9311C165.198 50.3696 165 49.9072 164.635 49.6099Z" fill="white"/>
<path d="M169.5 47.2318H171.883V57.5039H169.5V47.2318Z" fill="white"/>
<path d="M94.2476 61.6986H97.3252C98.0532 61.6986 98.7151 61.8308 99.2776 62.128C99.8402 62.3923 100.27 62.7886 100.601 63.3171C100.932 63.8455 101.065 64.407 101.065 65.1007C101.065 65.7943 100.899 66.3558 100.601 66.8842C100.304 67.3797 99.8402 67.776 99.2776 68.0733C98.7151 68.3375 98.0532 68.5027 97.3252 68.5027H94.2476V61.7317V61.6986ZM97.2259 67.1815C97.8877 67.1815 98.4503 66.9833 98.8474 66.62C99.2445 66.2567 99.4431 65.7282 99.4431 65.1007C99.4431 64.4731 99.2445 63.9446 98.8474 63.5813C98.4503 63.218 97.8877 63.0198 97.2259 63.0198H95.8029V67.2145H97.2259V67.1815Z" fill="#E65736"/>
<path d="M107.485 67.2145V68.4696H102.223V61.6986H107.352V62.9538H103.778V64.407H106.922V65.6291H103.778V67.1815H107.485V67.2145Z" fill="#E65736"/>
<path d="M115.162 61.6986L112.217 68.4696H110.661L107.749 61.6986H109.437L111.489 66.5209L113.574 61.6986H115.129H115.162Z" fill="#E65736"/>
<path d="M120.986 67.2145V68.4696H115.725V61.6986H120.854V62.9538H117.28V64.407H120.424V65.6291H117.28V67.1815H120.986V67.2145Z" fill="#E65736"/>
<path d="M122.211 61.6986H123.766V67.1815H127.175V68.4696H122.211V61.6986Z" fill="#E65736"/>
<path d="M129.326 68.1063C128.763 67.8091 128.333 67.3797 128.002 66.8512C127.671 66.3227 127.539 65.7282 127.539 65.0676C127.539 64.407 127.704 63.8125 128.002 63.2841C128.333 62.7556 128.763 62.3262 129.326 62.0289C129.888 61.7317 130.517 61.5665 131.245 61.5665C131.973 61.5665 132.569 61.7317 133.131 62.0289C133.694 62.3262 134.124 62.7556 134.455 63.2841C134.786 63.8125 134.951 64.407 134.951 65.0676C134.951 65.7282 134.786 66.3227 134.455 66.8512C134.124 67.3797 133.694 67.8091 133.131 68.1063C132.569 68.4036 131.94 68.5687 131.245 68.5687C130.55 68.5687 129.921 68.4036 129.326 68.1063ZM132.337 66.9503C132.668 66.7521 132.9 66.5209 133.098 66.1906C133.297 65.8603 133.363 65.497 133.363 65.0676C133.363 64.6383 133.264 64.2749 133.098 63.9446C132.9 63.6143 132.668 63.3501 132.337 63.185C132.006 63.0198 131.642 62.9207 131.245 62.9207C130.848 62.9207 130.484 63.0198 130.153 63.185C129.822 63.3831 129.59 63.6143 129.392 63.9446C129.193 64.2749 129.127 64.6383 129.127 65.0676C129.127 65.497 129.226 65.8603 129.392 66.1906C129.59 66.5209 129.822 66.7852 130.153 66.9503C130.484 67.1485 130.848 67.2145 131.245 67.2145C131.642 67.2145 132.006 67.1154 132.337 66.9503Z" fill="#E65736"/>
<path d="M140.643 61.9959C141.073 62.1941 141.438 62.4913 141.669 62.8547C141.901 63.218 142.033 63.6474 142.033 64.1758C142.033 64.7043 141.901 65.1007 141.669 65.464C141.438 65.8273 141.073 66.1246 140.643 66.3227C140.213 66.5209 139.684 66.62 139.088 66.62H137.731V68.4696H136.176V61.6986H139.121C139.717 61.6986 140.246 61.7977 140.676 61.9959H140.643ZM140.048 65.0016C140.279 64.8034 140.412 64.5061 140.412 64.1428C140.412 63.7795 140.279 63.4822 140.048 63.284C139.816 63.0859 139.452 62.9868 138.989 62.9868H137.698V65.3319H138.989C139.452 65.3319 139.816 65.2328 140.048 65.0346V65.0016Z" fill="#E65736"/>
<path d="M149.314 68.4696V64.407L147.295 67.743H146.6L144.614 64.4731V68.4366H143.158V61.6656H144.449L146.997 65.8603L149.512 61.6656H150.803V68.4366H149.347L149.314 68.4696Z" fill="#E65736"/>
<path d="M157.62 67.2145V68.4696H152.358V61.6986H157.488V62.9538H153.914V64.407H157.057V65.6291H153.914V67.1815H157.62V67.2145Z" fill="#E65736"/>
<path d="M165.099 61.6986V68.4696H163.808L160.433 64.374V68.4696H158.877V61.6986H160.168L163.543 65.7943V61.6986H165.099Z" fill="#E65736"/>
<path d="M168.11 62.9538H165.926V61.6656H171.85V62.9538H169.665V68.4366H168.11V62.9538Z" fill="#E65736"/>
<path d="M53.974 47.0997C53.974 47.0337 54.0071 47.0006 54.0402 46.9346C54.0733 46.8025 54.2387 46.1419 54.2718 45.4152C54.2718 45.118 54.2718 44.8207 54.2056 44.5235C54.1064 44.028 53.7754 43.7307 53.4776 43.5656C53.2459 43.4665 52.9812 43.3674 52.6503 43.2683C52.3525 43.2353 52.1539 43.2683 52.1539 43.2683L49.8043 44.6886L51.7237 49.5439C51.9222 49.4448 52.1208 49.3457 52.2532 49.2466C52.6834 48.9163 53.2459 48.4209 53.6431 47.6282C53.7423 47.397 53.8416 47.1988 53.9078 47.0667L53.974 47.0997Z" fill="white"/>
</svg>
